<?xml version="1.0" standalone="no"?>
<!DOCTYPE svg PUBLIC "-//W3C//DTD SVG 20010904//EN"
 "http://www.w3.org/TR/2001/REC-SVG-20010904/DTD/svg10.dtd">
<svg version="1.0" xmlns="http://www.w3.org/2000/svg"
 width="641.000000pt" height="399.000000pt" viewBox="0 0 641.000000 399.000000"
 preserveAspectRatio="xMidYMid meet">

<g transform="translate(0.000000,399.000000) scale(0.100000,-0.100000)"
fill="#000000" stroke="none">
<path d="M1466 3694 c-69 -17 -205 -79 -273 -125 -70 -48 -208 -183 -268 -265
-79 -106 -150 -234 -204 -374 -165 -418 -182 -682 -105 -1650 38 -482 42 -508
85 -531 28 -14 73 4 88 37 18 41 49 213 56 314 7 87 -6 412 -22 570 l-6 65
134 -124 c74 -69 269 -255 434 -415 165 -160 327 -309 359 -330 139 -92 254
-99 232 -13 -5 21 -16 29 -61 42 -66 19 -92 42 -249 227 -78 91 -181 194 -309
309 -105 95 -200 180 -211 190 -18 17 -15 17 61 12 154 -11 274 38 399 162 44
44 100 109 124 144 108 161 220 444 256 646 22 129 22 358 0 525 -46 336 -132
520 -273 581 -54 23 -159 24 -247 3z m196 -94 c137 -39 231 -341 231 -745 0
-149 -4 -197 -23 -279 -65 -292 -229 -618 -371 -739 -114 -98 -253 -130 -378
-88 -63 22 -139 62 -258 137 l-63 39 4 185 c2 102 7 206 11 231 9 61 -6 89
-45 89 -21 0 -35 -8 -47 -27 -16 -24 -18 -54 -18 -273 1 -135 9 -355 18 -490
10 -135 17 -315 15 -400 l-3 -155 -13 115 c-7 63 -24 250 -38 415 -22 257 -25
335 -21 545 8 333 35 479 143 748 81 203 164 331 301 463 124 120 228 180 377
219 82 22 126 24 178 10z"/>
<path d="M4610 3148 c-41 -91 -18 -502 51 -913 11 -66 22 -127 25 -136 3 -12
-8 -23 -39 -38 -50 -24 -72 -58 -63 -96 7 -28 46 -50 108 -60 37 -6 38 -7 58
-78 12 -40 37 -116 56 -169 20 -53 33 -101 30 -106 -3 -5 -22 -13 -41 -16 -39
-8 -69 -43 -59 -70 10 -26 50 -37 108 -30 l51 6 -32 -21 c-18 -11 -33 -25 -33
-30 0 -5 -18 -23 -41 -39 -46 -34 -84 -34 -150 -1 -88 44 -190 232 -202 374
-8 93 -49 231 -98 332 -85 173 -215 242 -374 199 -103 -27 -219 -101 -340
-216 l-80 -77 -30 60 c-70 141 -275 310 -432 357 -48 15 -47 13 -31 39 9 15 9
26 -1 48 -8 15 -20 42 -27 59 l-13 32 32 -2 32 -1 0 57 c-1 77 -26 113 -80
113 -87 0 -105 -106 -41 -241 20 -42 36 -77 36 -78 0 0 -51 -1 -113 -2 -161
-1 -283 -43 -453 -157 -280 -188 -480 -452 -550 -727 -29 -115 -26 -292 8
-387 51 -147 151 -270 279 -346 169 -99 468 -147 734 -117 112 13 261 49 369
90 l82 31 95 -41 c167 -74 249 -113 249 -120 0 -7 -185 -82 -325 -131 -77 -27
-105 -32 -190 -33 l-100 -1 -10 -29 c-8 -24 -6 -31 12 -46 30 -24 112 -33 186
-20 34 6 178 50 319 98 l257 86 61 -42 c79 -54 99 -59 133 -32 37 29 35 64 -5
100 -17 16 -30 31 -27 33 2 2 90 34 194 72 346 122 745 285 1235 505 314 141
394 194 407 273 21 133 -275 175 -785 113 -92 -11 -104 -10 -111 3 -15 30
-106 399 -100 405 8 9 256 61 404 85 224 38 390 53 633 60 241 6 244 6 263 30
21 26 18 58 -9 79 -20 15 -315 16 -547 2 -197 -12 -330 -31 -550 -77 -93 -20
-183 -37 -199 -37 -29 -1 -31 2 -43 59 -47 224 -112 859 -90 882 4 4 28 -3 53
-15 47 -23 78 -22 88 3 9 25 -2 38 -74 88 -51 34 -79 47 -105 47 -33 0 -38 -4
-55 -42z m-1587 -854 c162 -42 309 -155 402 -310 53 -87 53 -100 1 -196 -73
-135 -99 -217 -104 -334 -8 -183 56 -312 186 -378 l44 -23 -38 -31 c-21 -18
-62 -44 -91 -59 l-53 -28 -52 29 c-29 16 -97 58 -151 93 -87 58 -96 66 -86 84
15 29 2 59 -30 65 -25 5 -29 13 -44 77 -34 144 -59 353 -64 542 -3 105 -10
196 -15 203 -15 18 -46 15 -57 -7 -23 -42 -32 -196 -21 -342 11 -150 34 -329
50 -389 13 -47 13 -49 -10 -43 -25 7 -50 -13 -50 -38 0 -26 178 -203 278 -276
l83 -61 -66 -22 c-305 -102 -752 -67 -950 75 -77 55 -148 150 -182 244 -86
235 14 552 254 802 264 274 526 385 766 323z m1100 -147 c63 -27 123 -111 172
-241 l23 -61 -24 -28 c-21 -25 -24 -38 -24 -111 0 -196 -50 -348 -141 -430
-99 -89 -196 -126 -330 -126 -88 0 -109 5 -109 29 0 34 -21 89 -36 95 -8 3
-25 1 -36 -5 -15 -8 -19 -18 -16 -45 2 -19 0 -34 -4 -34 -4 0 -30 21 -57 48
-64 61 -86 130 -78 243 4 62 10 84 30 111 33 43 67 121 74 167 13 87 210 288
353 361 83 42 146 50 203 27z m1575 -673 c18 -4 31 -11 29 -17 -5 -17 -113
-73 -196 -103 -309 -110 -519 -193 -792 -312 -163 -71 -329 -138 -624 -251
l-256 -99 -62 35 c-34 20 -111 60 -171 89 -60 30 -111 56 -114 58 -2 3 29 36
68 75 l72 70 91 -5 c185 -12 323 40 453 170 85 85 123 148 147 245 l14 55 33
-63 c90 -168 229 -242 373 -199 25 8 65 35 105 72 57 54 63 63 60 93 -3 22 0
33 9 33 6 0 16 7 20 15 8 14 219 36 458 49 80 4 234 -2 283 -10z"/>
</g>
</svg>
